<svg id="fa72085c-666f-466d-b308-be78e015faee" data-name="svg 1px" xmlns="http://www.w3.org/2000/svg" viewBox="0 0 96 96" stroke="#00008f" fill="white">
<title>axa_icon_96_health_1px</title>
<path d="M22.19,68.54a3.76,3.76,0,1,0,3.72,3.76A3.75,3.75,0,0,0,22.19,68.54Zm0,6.53a2.76,2.76,0,1,1,2.72-2.76A2.75,2.75,0,0,1,22.19,75.06Z"/><path d="M70.52,68.54a3.76,3.76,0,1,0,3.72,3.76A3.75,3.75,0,0,0,70.52,68.54Zm0,6.53a2.76,2.76,0,1,1,2.72-2.76A2.75,2.75,0,0,1,70.52,75.06Z"/><path d="M90.35,66.55V52.72a.51.51,0,0,0,0-.15L84.57,33.63A13.51,13.51,0,0,0,73.17,24v-.69a4.8,4.8,0,1,0-9.59,0v.59H58.1a5.9,5.9,0,0,0-5.85-5.44H12.52a5.91,5.91,0,0,0-5.87,5.94V66.55a3.22,3.22,0,0,0,1,6.25h5.43a9.08,9.08,0,0,0,18.14,0h30.2a9.08,9.08,0,0,0,18.14,0h9.73a3.22,3.22,0,0,0,1-6.25Zm-1-5.63H86.63a2.76,2.76,0,0,1,0-5.53h2.72ZM87.53,46.78H70.3a4.69,4.69,0,0,1-4.65-4.72V33.14a1.66,1.66,0,0,1,1.65-1.68H82.58a13,13,0,0,1,1,2.45ZM82,30.46H67.3a2.66,2.66,0,0,0-2.65,2.68v8.92a5.69,5.69,0,0,0,5.65,5.72H87.54a.49.49,0,0,0,.26-.09l1.55,5.1v1.6H86.63a3.76,3.76,0,0,0,0,7.53h2.72v4.44H77.45a9,9,0,0,0-13.87,0H58.13V24.94H71.62A12.44,12.44,0,0,1,82,30.46ZM61.45,71.8H31.25a9.21,9.21,0,0,0-1.41-4.44h33A9.21,9.21,0,0,0,61.45,71.8Zm3.12-48.45a3.8,3.8,0,1,1,7.59,0V24l-.55,0h-7ZM7.65,24.44a4.91,4.91,0,0,1,4.87-4.94H52.26a4.91,4.91,0,0,1,4.87,4.94V66.36h-28a9,9,0,0,0-13.87,0H7.65ZM5.5,69.58a2.2,2.2,0,0,1,2.19-2.22h6.84a9.21,9.21,0,0,0-1.41,4.44H7.69A2.2,2.2,0,0,1,5.5,69.58ZM22.19,80.5a8.2,8.2,0,1,1,8.09-8.2A8.16,8.16,0,0,1,22.19,80.5Zm48.33,0a8.2,8.2,0,1,1,8.09-8.2A8.16,8.16,0,0,1,70.52,80.5Zm18.8-8.7H79.59a9.21,9.21,0,0,0-1.41-4.44H89.31a2.22,2.22,0,0,1,0,4.44Z"/><path d="M66.22,53.22h2.15a.5.5,0,0,0,0-1H66.22a.5.5,0,0,0,0,1Z"/><path d="M22.19,47.78h5.94v6a1.58,1.58,0,0,0,1.57,1.59h6.44a1.58,1.58,0,0,0,1.57-1.59v-6h5.94a1.58,1.58,0,0,0,1.57-1.59V39.67a1.58,1.58,0,0,0-1.57-1.59H37.72v-6a1.58,1.58,0,0,0-1.57-1.59H29.7a1.58,1.58,0,0,0-1.57,1.59v6H22.19a1.58,1.58,0,0,0-1.57,1.59v6.53A1.58,1.58,0,0,0,22.19,47.78Zm-.57-8.11a.58.58,0,0,1,.57-.59h6.44a.5.5,0,0,0,.5-.5V32.05a.58.58,0,0,1,.57-.59h6.44a.58.58,0,0,1,.57.59v6.53a.5.5,0,0,0,.5.5h6.44a.58.58,0,0,1,.57.59v6.53a.58.58,0,0,1-.57.59H37.22a.5.5,0,0,0-.5.5v6.53a.58.58,0,0,1-.57.59H29.7a.58.58,0,0,1-.57-.59V47.28a.5.5,0,0,0-.5-.5H22.19a.58.58,0,0,1-.57-.59Z"/></svg>